<mxfile host="app.diagrams.net" modified="2023-04-26T18:38:21.813Z" agent="Mozilla/5.0 (Macintosh; Intel Mac OS X 10_15_7) AppleWebKit/605.1.15 (KHTML, like Gecko) Version/16.3 Safari/605.1.15" version="21.2.2" etag="MlVvjHKrMOWjqhnMQ_Ad" type="github">
  <diagram name="Page-1" id="i1mPH8Jzd_vn6bi_4Det">
    <mxGraphModel>
      <root>
        <mxCell id="0" />
        <mxCell id="1" parent="0" />
      </root>
    </mxGraphModel>
  </diagram>
</mxfile>
